PathFileType	4	(X/Y/Z)	C:\Users\dbl\Desktop\LZH\BX\Trimmed_bx_n_10_1801.trc
DataRate	CameraRate	NumFrames	NumMarkers	Units	OrigDataRate	OrigDataStartFrame	OrigNumFrames
50.00	50.00	       8	43	mm	50.00	99	       394
Frame#	Time	Top.Head			R.Acromium			L.Acromium			Sternum			R.ASIS			L.ASIS			V.Sacral			R.Thigh.Upper			R.Thigh.Front			R.Thigh.Rear			R.Knee.Lat			R.Knee.Med			R.Shank.Upper			R.Shank.Front			R.Shank.Rear			R.Ankle.Lat			R.Midfoot.Lat			R.Toe.Lat			R.Toe.Tip			R.Toe.Med			R.Ankle.Med			R.Midfoot.Sup			R.Heel			L.Thigh.Upper			L.Thigh.Front			L.Thigh.Rear			L.Knee.Lat			L.Knee.Med			L.Shank.Upper			L.Shank.Front			L.Shank.Rear			L.Ankle.Lat			L.Midfoot.Lat			L.Toe.Lat			L.Toe.Tip			L.Toe.Med			L.Ankle.Med			L.Midfoot.Sup			L.Heel			origin1 front left			origin2 front right			origin 3 back right			origin 4 back leftt			
		X1	Y1	Z1	X2	Y2	Z2	X3	Y3	Z3	X4	Y4	Z4	X5	Y5	Z5	X6	Y6	Z6	X7	Y7	Z7	X8	Y8	Z8	X9	Y9	Z9	X10	Y10	Z10	X11	Y11	Z11	X12	Y12	Z12	X13	Y13	Z13	X14	Y14	Z14	X15	Y15	Z15	X16	Y16	Z16	X17	Y17	Z17	X18	Y18	Z18	X19	Y19	Z19	X20	Y20	Z20	X21	Y21	Z21	X22	Y22	Z22	X23	Y23	Z23	X24	Y24	Z24	X25	Y25	Z25	X26	Y26	Z26	X27	Y27	Z27	X28	Y28	Z28	X29	Y29	Z29	X30	Y30	Z30	X31	Y31	Z31	X32	Y32	Z32	X33	Y33	Z33	X34	Y34	Z34	X35	Y35	Z35	X36	Y36	Z36	X37	Y37	Z37	X38	Y38	Z38	X39	Y39	Z39	X40	Y40	Z40	X41	Y41	Z41	X42	Y42	Z42	X43	Y43	Z43	

99	1.960	-626.54883	255.91940	1833.29565	-630.50952	76.19055	1532.36206	-653.18317	432.99774	1531.80640	-539.67572	260.56491	1351.06689	-529.34454	135.28563	1028.74731	-514.56024	363.60422	1037.08606	-722.81525	256.95828	1042.51904	-582.86798	83.59351	864.22656	-512.98462	153.65402	848.23547	-599.75714	95.43640	737.33337	-648.25665	118.95562	603.13080	-630.44641	227.11270	562.03162	-678.65887	118.65331	541.48688	-599.42322	164.39523	534.25793	-718.54962	119.34590	475.98352	-690.86163	142.77472	214.29913	-614.79993	85.57990	165.71483	-566.65765	66.41310	163.10294	-489.44806	111.21428	158.79289	-537.56909	161.20422	164.46283	-646.28595	221.55531	217.90340	-602.11133	198.03641	169.90382	-729.81018	208.11079	170.66837	-596.54156	443.18304	874.16321	-512.19269	371.95206	842.44025	-620.79907	431.39288	754.95862	-652.83112	410.42151	628.49445	-613.26172	307.11093	575.16412	-659.92950	408.32813	562.31696	-600.56158	361.30621	545.12463	-709.58008	411.85880	509.75211	-682.40698	406.97665	214.68372	-588.67859	458.56458	164.96043	-550.12830	466.49881	161.20845	-488.96298	419.47797	167.28171	-528.11993	377.17850	176.37378	-647.64178	316.95801	207.66531	-598.98523	337.49203	168.26915	-737.79138	337.66949	163.85364	-443.49841	448.49973	146.98451	-450.50620	75.03171	144.22156	-806.43414	82.77692	142.26942	-799.48785	456.79871	145.20432	
100	1.980	-626.80109	255.73804	1833.30750	-630.80347	76.12588	1532.35132	-653.37054	432.91522	1531.78564	-539.90900	260.37607	1351.13330	-529.25269	135.11491	1028.87708	-514.48694	363.48367	1037.11487	-722.70984	256.88275	1042.44531	-582.73749	83.51515	864.21582	-512.87781	153.57758	848.22565	-599.65302	95.31397	737.44086	-648.10046	118.97630	603.07153	-630.47839	227.18492	562.08600	-678.63477	118.65340	541.47559	-599.37012	164.30818	534.24182	-718.41785	119.35256	475.92578	-690.83954	142.79842	214.28061	-614.80994	85.57611	165.71858	-566.63849	66.45164	163.09160	-489.45892	111.20621	158.80373	-537.59406	161.18980	164.45422	-646.19690	221.68132	218.05064	-602.10065	198.02309	169.93230	-729.78833	208.08781	170.64130	-596.36816	443.10223	874.16211	-512.13123	371.84808	842.44556	-620.61011	431.27267	754.97815	-652.71552	410.34055	628.50439	-613.14349	307.00040	575.10907	-659.70178	408.30072	562.41266	-600.39178	361.20978	545.04584	-709.46552	411.73819	509.78961	-682.36108	406.97861	214.68060	-588.70587	458.55170	164.95024	-550.10706	466.49875	161.20544	-488.92462	419.47937	167.26695	-528.14093	377.14496	176.37875	-647.62256	316.96173	207.65938	-598.93945	337.48669	168.27110	-737.79712	337.64502	163.84830	-443.51727	448.48199	147.01547	-450.51474	75.05105	144.20097	-806.45831	82.77968	142.25146	-799.53802	456.81100	145.26550	
101	2.000	-627.04913	255.56232	1833.31299	-631.10339	76.02895	1532.32849	-653.54712	432.82776	1531.74927	-540.10144	260.16876	1351.22644	-529.14850	134.97462	1028.93958	-514.34204	363.31189	1037.14246	-722.60767	256.78220	1042.39673	-582.62213	83.47050	864.18878	-512.72015	153.47748	848.19684	-599.52332	95.12376	737.57440	-647.98541	118.96586	603.05554	-630.51300	227.24319	562.13751	-678.60614	118.62072	541.48810	-599.31732	164.19859	534.21454	-718.26990	119.33655	475.88074	-690.88275	142.84886	214.20966	-614.82269	85.57414	165.72948	-566.59332	66.49313	163.08589	-489.46201	111.19368	158.81834	-537.63251	161.17194	164.45703	-646.07928	221.83188	218.23242	-602.10571	198.01402	169.95798	-729.76337	208.07640	170.63466	-596.19507	442.99112	874.12933	-512.06885	371.76697	842.42761	-620.41821	431.14944	754.99646	-652.62622	410.29404	628.51935	-613.03333	306.90488	575.05267	-659.47247	408.27863	562.49097	-600.27777	361.07861	544.97400	-709.37299	411.61707	509.84900	-682.32251	406.99045	214.67731	-588.72015	458.53790	164.95087	-550.09088	466.51297	161.22911	-488.89310	419.47440	167.26091	-528.15649	377.12259	176.40761	-647.58087	316.95370	207.69597	-598.90729	337.48761	168.26956	-737.78217	337.63950	163.84048	-443.53363	448.48477	147.04501	-450.52554	75.06964	144.16928	-806.46216	82.78383	142.25333	-799.58252	456.84073	145.33551	
102	2.020	-627.25708	255.42203	1833.30872	-631.40100	75.90210	1532.28381	-653.71442	432.73145	1531.71411	-540.23694	259.98209	1351.33362	-529.02637	134.84346	1028.94360	-514.11713	363.10413	1037.16992	-722.53088	256.65442	1042.39697	-582.50885	83.45004	864.15540	-512.49854	153.34555	848.16663	-599.37592	94.92640	737.66943	-647.89294	118.90945	603.08917	-630.55029	227.28836	562.18591	-678.55731	118.56208	541.51874	-599.25000	164.08864	534.19189	-718.08032	119.28648	475.87399	-690.85510	142.82750	214.22084	-614.83020	85.57829	165.74512	-566.55298	66.50357	163.10692	-489.45218	111.19265	158.83488	-537.65820	161.16528	164.46872	-646.02246	221.90463	218.32159	-602.11188	198.00389	169.98796	-729.73700	208.06885	170.64046	-596.03546	442.87802	874.09570	-511.98578	371.71786	842.40100	-620.24286	431.03992	755.01422	-652.56970	410.26688	628.53094	-612.88641	306.81851	575.01654	-659.27881	408.24561	562.54181	-600.16486	360.96506	544.88306	-709.30072	411.50681	509.94226	-682.28967	407.00891	214.69003	-588.70190	458.53323	164.98601	-550.07648	466.53171	161.27061	-488.87396	419.47574	167.25563	-528.14624	377.12457	176.45119	-647.52991	316.94153	207.74496	-598.88892	337.49457	168.26022	-737.76141	337.64243	163.83389	-443.53809	448.51297	147.05486	-450.53256	75.07495	144.14885	-806.45227	82.79329	142.27333	-799.60162	456.85727	145.38216	
103	2.040	-627.42224	255.31609	1833.30530	-631.67334	75.75858	1532.23962	-653.87714	432.63855	1531.68591	-540.34558	259.84897	1351.42395	-528.89233	134.70815	1028.93494	-513.84790	362.90289	1037.19849	-722.46753	256.51920	1042.43030	-582.38354	83.42352	864.11981	-512.23669	153.18045	848.16278	-599.22467	94.77574	737.69629	-647.77533	118.79990	603.17047	-630.59070	227.32298	562.23193	-678.48969	118.49525	541.56116	-599.16498	163.99828	534.18042	-717.84656	119.20263	475.91843	-690.70380	142.70801	214.36177	-614.82953	85.58620	165.75400	-566.54486	66.47360	163.14700	-489.44000	111.20685	158.84866	-537.66199	161.17535	164.46925	-646.08850	221.84413	218.24455	-602.10742	197.98726	170.03224	-729.70410	208.06400	170.64960	-595.89880	442.77969	874.06732	-511.87061	371.68661	842.36078	-620.10706	430.94064	755.00159	-652.53223	410.24396	628.54785	-612.67334	306.74884	575.00928	-659.10876	408.20322	562.58746	-600.04028	360.90466	544.79871	-709.23199	411.41043	510.06927	-682.27106	407.02789	214.72916	-588.66333	458.54013	165.02689	-550.06207	466.53842	161.30437	-488.86273	419.49405	167.24197	-528.11810	377.13742	176.48761	-647.51141	316.94501	207.75203	-598.87799	337.49744	168.24890	-737.75293	337.65198	163.83026	-443.53226	448.54916	147.05138	-450.53299	75.06727	144.14874	-806.43787	82.80543	142.29332	-799.58716	456.87006	145.39888	
104	2.060	-627.56818	255.21866	1833.31738	-631.90326	75.61124	1532.22656	-654.04004	432.56320	1531.66467	-540.46344	259.77417	1351.47571	-528.76361	134.58337	1028.94958	-513.58759	362.73477	1037.22058	-722.38116	256.39520	1042.46301	-582.24768	83.35174	864.08533	-511.98691	153.01401	848.19055	-599.06781	94.67912	737.66943	-647.61639	118.65520	603.26855	-630.63440	227.34888	562.27606	-678.41290	118.43439	541.60608	-599.07037	163.93083	534.17584	-717.61548	119.10692	475.98907	-690.52490	142.57256	214.52557	-614.82111	85.59108	165.75020	-566.56519	66.43121	163.17941	-489.44092	111.22145	158.85541	-537.65106	161.18999	164.44739	-646.21606	221.71701	218.08429	-602.09503	197.97057	170.07735	-729.66937	208.05452	170.66708	-595.77905	442.68707	874.03796	-511.72678	371.64340	842.29370	-619.99939	430.83884	754.94293	-652.48004	410.21432	628.58307	-612.40723	306.69339	575.03906	-658.91968	408.15604	562.64508	-599.92963	360.88663	544.74683	-709.15021	411.33380	510.19745	-682.27380	407.04031	214.78360	-588.63403	458.54288	165.04030	-550.05402	466.52963	161.31174	-488.85132	419.51868	167.21822	-528.09357	377.14029	176.49944	-647.54016	316.96234	207.70895	-598.87347	337.49451	168.23047	-737.76239	337.66730	163.83208	-443.52667	448.56522	147.04272	-450.52997	75.05304	144.15967	-806.42053	82.81104	142.29968	-799.54999	456.88718	145.38907	
105	2.080	-627.69916	255.11617	1833.34985	-632.09320	75.47533	1532.24792	-654.20679	432.50906	1531.64648	-540.59351	259.73740	1351.49475	-528.64948	134.48807	1028.98315	-513.37305	362.59164	1037.22815	-722.24622	256.28958	1042.47754	-582.11292	83.21914	864.04974	-511.79245	152.88858	848.22736	-598.89642	94.60987	737.62744	-647.45477	118.52088	603.34442	-630.68146	227.36690	562.31860	-678.33710	118.38016	541.64728	-598.98254	163.87630	534.16876	-717.45209	119.02944	476.04306	-690.40442	142.48654	214.61160	-614.80316	85.59262	165.74269	-566.58521	66.40794	163.18987	-489.45190	111.22565	158.85516	-537.63733	161.19614	164.41635	-646.31409	221.62527	217.96631	-602.08539	197.96880	170.08777	-729.65155	208.02641	170.70001	-595.65320	442.57462	874.01282	-511.56467	371.57272	842.22015	-619.87891	430.71225	754.85767	-652.38196	410.15649	628.62842	-612.14575	306.64224	575.10376	-658.68378	408.10144	562.70721	-599.85028	360.87848	544.72095	-709.05750	411.27423	510.27863	-682.28339	407.04752	214.83180	-588.62292	458.52350	165.03290	-550.05896	466.51300	161.29884	-488.84012	419.53052	167.19174	-528.08307	377.12918	176.49216	-647.56738	316.96817	207.66875	-598.86932	337.48959	168.20099	-737.77582	337.68240	163.84067	-443.52945	448.54623	147.03281	-450.53018	75.04140	144.16214	-806.39905	82.80215	142.29343	-799.51227	456.90051	145.34602	
106	2.100	-627.78131	255.01756	1833.39600	-632.25244	75.36312	1532.27576	-654.37616	432.46857	1531.62439	-540.69897	259.71420	1351.50854	-528.54718	134.42288	1029.00464	-513.21942	362.45908	1037.22339	-722.06073	256.20679	1042.47485	-581.98523	83.05198	864.01947	-511.66705	152.81729	848.24066	-598.72784	94.54705	737.60529	-647.34900	118.43374	603.39105	-630.73169	227.37737	562.35956	-678.27124	118.32190	541.68317	-598.91504	163.82675	534.14825	-717.36920	118.98235	476.06018	-690.35510	142.45216	214.60718	-614.77704	85.59955	165.74614	-566.58002	66.41341	163.17709	-489.45313	111.22574	158.85167	-537.62683	161.19740	164.40303	-646.36023	221.59897	217.92575	-602.08398	197.98132	170.06012	-729.67291	207.98621	170.74081	-595.49786	442.42383	874.00995	-511.38620	371.47589	842.19550	-619.73346	430.54236	754.77612	-652.23669	410.04794	628.65289	-611.95001	306.59943	575.16632	-658.43054	408.04645	562.75848	-599.78772	360.85358	544.70148	-708.96582	411.21576	510.28290	-682.28113	407.05569	214.86447	-588.61353	458.48715	165.02708	-550.06915	466.49423	161.28181	-488.84119	419.52353	167.18025	-528.08478	377.11255	176.47795	-647.53876	316.94510	207.67926	-598.84882	337.47818	168.17926	-737.77185	337.69098	163.85011	-443.53516	448.50702	147.02061	-450.53610	75.03682	144.14862	-806.38013	82.78111	142.28098	-799.48358	456.92581	145.25882	
